<?xml version="1.0" encoding="UTF-8"?>
<svg version="1.1" xmlns="http://www.w3.org/2000/svg" width="743" height="206">
<path d="M0 0 C9.71526795 2.19044503 19.37634463 4.5604761 29 7.125 C29.97340332 7.37846191 30.94680664 7.63192383 31.94970703 7.89306641 C32.85317871 8.13718262 33.75665039 8.38129883 34.6875 8.6328125 C35.49574219 8.84824707 36.30398438 9.06368164 37.13671875 9.28564453 C39 10 39 10 40 12 C39.67041016 13.82836914 39.67041016 13.82836914 39.0390625 16.03515625 C38.70261719 17.25041992 38.70261719 17.25041992 38.359375 18.49023438 C38.11703125 19.33908203 37.8746875 20.18792969 37.625 21.0625 C37.15231419 22.71819894 36.68612582 24.37576709 36.2265625 26.03515625 C36.01596191 26.7712915 35.80536133 27.50742676 35.58837891 28.26586914 C33.48963477 38.01849803 33.78297661 48.0166678 33.68359375 57.94140625 C33.66299071 59.67732704 33.64199343 61.41324318 33.62062073 63.14915466 C33.56574569 67.69133723 33.51618575 72.23356244 33.46777344 76.77581787 C33.40841169 82.24009048 33.34237622 87.70428611 33.27747345 93.16849518 C33.17989967 101.44561596 33.09074619 109.72278888 33 118 C19.47 118 5.94 118 -8 118 C-8.33 116.02 -8.66 114.04 -9 112 C-9.65226562 112.40992188 -10.30453125 112.81984375 -10.9765625 113.2421875 C-11.85054688 113.78101563 -12.72453125 114.31984375 -13.625 114.875 C-14.48351562 115.40867187 -15.34203125 115.94234375 -16.2265625 116.4921875 C-25.54601819 121.55882115 -37.07190372 121.28177894 -47.3359375 119.3828125 C-57.49668138 116.09294414 -65.12411714 109.17967544 -70.52734375 100.09765625 C-73.13446546 94.61371057 -74.61285558 88.90182565 -76 83 C-76.67482422 84.54107422 -76.67482422 84.54107422 -77.36328125 86.11328125 C-84.64576989 102.08527863 -94.50203048 111.72228762 -111 118 C-117.6518053 120.13190014 -123.79542849 120.2716636 -130.75 120.1875 C-132.29107422 120.1865332 -132.29107422 120.1865332 -133.86328125 120.18554688 C-138.17894308 120.16022683 -141.78474396 120.05381401 -146 119 C-146 131.21 -146 143.42 -146 156 C-159.86 156 -173.72 156 -188 156 C-188.33 131.25 -188.66 106.5 -189 81 C-190.65 84.96 -192.3 88.92 -194 93 C-201.35480401 105.52225113 -212.08299849 114.34849579 -226.05249023 118.62890625 C-242.19325595 122.66004854 -260.82290495 121.37442527 -275.375 113.1875 C-287.23316037 105.40497577 -294.22414472 96.28996546 -298.95703125 82.8828125 C-299.83027005 80.46914122 -300.7936055 78.25994265 -302 76 C-302.34611328 77.14275391 -302.34611328 77.14275391 -302.69921875 78.30859375 C-307.56809536 93.72349557 -315.99610054 106.68123181 -330.6640625 114.40234375 C-340.21037725 118.93881563 -348.26690346 120.3143655 -358.75 120.1875 C-359.77738281 120.18685547 -360.80476563 120.18621094 -361.86328125 120.18554688 C-366.17894308 120.16022683 -369.78474396 120.05381401 -374 119 C-374 131.21 -374 143.42 -374 156 C-387.86 156 -401.72 156 -416 156 C-416 106.5 -416 57 -416 6 C-401.48 5.67 -386.96 5.34 -372 5 C-370.35 4.67 -368.7 4.34 -367 4 C-349.20867407 2.64860454 -333.75143727 5.53960569 -319.25 16.625 C-311.63670207 23.72568186 -306.31282292 33.25034497 -303 43 C-302.34102269 44.66972187 -301.67624562 46.33719692 -301 48 C-300.58041016 46.54980469 -300.58041016 46.54980469 -300.15234375 45.0703125 C-297.61332181 36.67250823 -294.74602326 29.78756312 -289 23 C-288.37738281 22.23171875 -287.75476563 21.4634375 -287.11328125 20.671875 C-278.50569561 11.03137909 -265.38306994 4.83280661 -252.51318359 3.80053711 C-234.44552985 3.0865706 -219.09860871 5.4933176 -204.625 17.3125 C-196.83053141 24.6967334 -193.16676187 32.99977151 -189 43 C-188.67 30.79 -188.34 18.58 -188 6 C-183.32263672 5.90912109 -183.32263672 5.90912109 -178.55078125 5.81640625 C-175.52577397 5.75457159 -172.50080244 5.69120265 -169.47583008 5.62768555 C-167.37592765 5.58441365 -165.27599179 5.54273317 -163.17602539 5.50268555 C-160.15500827 5.44479523 -157.13415821 5.3811549 -154.11328125 5.31640625 C-153.17664139 5.29969376 -152.24000153 5.28298126 -151.27497864 5.26576233 C-147.05041589 5.17007074 -143.13207206 4.95453265 -139 4 C-121.07911892 2.55637347 -104.99626909 5.62876322 -90.75 17.25 C-83.68624264 23.82161033 -79.90767981 31.20772043 -76 40 C-75.67 29.11 -75.34 18.22 -75 7 C-61.47 7 -47.94 7 -34 7 C-34 30.43 -34 53.86 -34 78 C-14.51281854 58.51281854 -7.62308547 25.57165248 0 0 Z M-371.4375 50.625 C-375.30062665 56.49695251 -374.62013852 63.20698842 -374 70 C-372.34050861 74.6510409 -369.84280514 76.51616742 -365.625 78.9375 C-360.53827499 80.42843664 -356.89420544 80.68191396 -351.875 78.875 C-348.09812062 76.41181779 -344.82847229 73.54309531 -343.3828125 69.10546875 C-342.18693426 62.52813841 -342.35106865 56.56065041 -345.7421875 50.69140625 C-348.64725995 46.78489579 -352.1992273 44.94432272 -356.875 44 C-362.92041487 43.51358731 -367.43347314 46.31297108 -371.4375 50.625 Z M-255.5078125 48.3984375 C-259.99419878 53.44882663 -260.30685002 57.89556892 -260.2109375 64.3984375 C-259.89366111 68.31151298 -259.08917156 71.64958783 -257 75 C-252.26490154 78.8472675 -248.26278973 80.39364097 -242.125 80.26953125 C-237.68102174 79.70586489 -234.49886074 77.83930993 -231.67578125 74.375 C-228.26646011 68.63298544 -228.13630355 62.49953388 -229 56 C-230.24958169 51.8235906 -231.92411312 48.95292838 -235.1875 46.0625 C-242.38158904 43.34473303 -249.45222043 42.78211118 -255.5078125 48.3984375 Z M-144 50.8125 C-147.53464169 56.32414467 -146.97385973 63.77401402 -146 70 C-142.98012407 75.57364057 -139.90419872 78.03931862 -134 80 C-128.74929138 80.63370621 -125.42822521 79.88797296 -121 77 C-116.61689763 72.67596909 -114.85202488 68.95187571 -114.6875 62.8125 C-114.75226036 57.37263003 -115.68592176 53.36387942 -119 49 C-122.66053179 45.75543773 -126.08995356 44.21300546 -130.91796875 43.84375 C-136.15193147 44.2365427 -140.50030846 46.99734331 -144 50.8125 Z " fill="#272864" transform="translate(416,50)"/>
<path d="M0 0 C13.53 0 27.06 0 41 0 C41.33 32.34 41.66 64.68 42 98 C43.65 93.05 45.3 88.1 47 83 C54.94803797 68.87015472 65.30540905 59.78856863 81 55 C97.11368566 51.06204512 113.40857636 52.70855132 127.75 61.1875 C139.50422651 69.19253357 146.71281704 81.22936869 150 95 C151.14460465 101.83075803 151.12193076 108.65481753 151.0625 115.5625 C151.05798828 116.57119141 151.05347656 117.57988281 151.04882812 118.61914062 C151.03716769 121.07949147 151.02080378 123.53971239 151 126 C148.36 126.33 145.72 126.66 143 127 C145.31 129.31 147.62 131.62 150 134 C153.78710208 130.42930375 157.68137689 126.7251561 160 122 C159.75568004 119.45748398 159.75568004 119.45748398 158 117 C151.43201778 105.66701107 148.66882684 94.77596639 152.125 81.6875 C153.92897758 76.54532091 156.64649137 72.26955017 160 68 C160.49113281 67.3709375 160.98226562 66.741875 161.48828125 66.09375 C168.30492583 58.38062363 178.68165133 54.3977495 188.78515625 53.76171875 C202.42149807 53.40643142 213.43298433 55.79066591 224 65 C229.05370294 69.9670389 233.84561032 75.2551509 238 81 C236.63917829 84.07884863 235.13251195 86.07086911 232.6640625 88.34765625 C232.01179687 88.95287109 231.35953125 89.55808594 230.6875 90.18164062 C230.006875 90.80232422 229.32625 91.42300781 228.625 92.0625 C227.95210937 92.68705078 227.27921875 93.31160156 226.5859375 93.95507812 C223.4904422 96.80988039 220.40119228 99.51062667 217 102 C217.51949219 102.46148437 218.03898438 102.92296875 218.57421875 103.3984375 C227.24195992 111.50541908 231.84965924 121.08397517 232.25 133 C231.86016291 143.95875388 227.7834561 152.71295046 219.8125 160.3125 C210.54976139 168.06808114 201.0718801 170.18786518 189.375 170.25 C188.42753906 170.270625 187.48007812 170.29125 186.50390625 170.3125 C169.32366673 170.40650952 156.86476363 161.34907853 144 151 C143.030625 151.845625 142.06125 152.69125 141.0625 153.5625 C139.70956575 154.70978824 138.3553084 155.85551735 137 157 C136.32453125 157.5878125 135.6490625 158.175625 134.953125 158.78125 C122.05834684 169.51121139 106.4033674 172.27545869 90 171 C74.50442623 168.80702009 62.16042657 162.06550655 52 150 C46.86845019 143.08789088 44.78654078 136.35962233 42 128 C41.67 141.2 41.34 154.4 41 168 C27.47 168 13.94 168 0 168 C0 112.56 0 57.12 0 0 Z M86 91 C86 91.33 86 91.66 86 92 C93.59 92 101.18 92 109 92 C101.88999505 86.66749629 93.7474827 85.97460582 86 91 Z M81 126 C83.76815019 131.53630037 87.193072 134.06158421 93 136 C100.18098475 136.87348726 106.28349901 136.81447174 112.31640625 132.58203125 C114.42888058 130.59699156 116.18914596 128.26356754 118 126 C105.79 126 93.58 126 81 126 Z " fill="#272864" transform="translate(459,0)"/>
<path d="M0 0 C13.53 0 27.06 0 41 0 C41 12.21 41 24.42 41 37 C27.47 37 13.94 37 0 37 C0 24.79 0 12.58 0 0 Z " fill="#272864" transform="translate(702,134)"/>
</svg>
